
<svg width="62" height="18" viewBox="0 0 62 18" fill="none" xmlns="http://www.w3.org/2000/svg">
<path d="M0 17.2V10.1H1.11667L3.52778 14.2278L5.85 10.1H6.96111V17.2H5.77778V12.4556L3.59444 16.2556H3.44444L1.16111 12.3778V17.2H0Z" fill="currentcolor"/>
<path d="M8.61667 14.9111V12.3889C8.61667 11.6259 8.86852 11.0426 9.37222 10.6389C9.87593 10.2352 10.5611 10.0333 11.4278 10.0333C12.3056 10.0333 12.9944 10.237 13.4944 10.6444C13.9981 11.0519 14.25 11.6333 14.25 12.3889V14.9111C14.25 15.6667 13.9981 16.2482 13.4944 16.6556C12.9944 17.063 12.3056 17.2667 11.4278 17.2667C10.5463 17.2667 9.85741 17.0611 9.36111 16.65C8.86482 16.2352 8.61667 15.6556 8.61667 14.9111ZM9.85556 14.7444C9.85556 15.1852 9.97222 15.5204 10.2056 15.75C10.4389 15.9796 10.8463 16.0944 11.4278 16.0944C12.0167 16.0944 12.4278 15.9778 12.6611 15.7444C12.8944 15.5111 13.0111 15.1778 13.0111 14.7444V12.5556C13.0111 12.1148 12.8926 11.7796 12.6556 11.55C12.4222 11.3204 12.013 11.2056 11.4278 11.2056C11.113 11.2056 10.8481 11.2407 10.6333 11.3111C10.4185 11.3815 10.2556 11.4833 10.1444 11.6167C10.037 11.7463 9.96111 11.8852 9.91667 12.0333C9.87593 12.1815 9.85556 12.3556 9.85556 12.5556V14.7444Z" fill="currentcolor"/>
<path d="M15.9 17.2V10.1H18.3778C19.2444 10.1 19.8722 10.2519 20.2611 10.5556C20.6537 10.8556 20.85 11.3185 20.85 11.9444C20.85 12.2482 20.7815 12.5259 20.6444 12.7778C20.5111 13.0259 20.313 13.2222 20.05 13.3667C20.4204 13.5 20.7093 13.7222 20.9167 14.0333C21.1278 14.3444 21.2333 14.6982 21.2333 15.0944C21.2333 16.4982 20.3963 17.2 18.7222 17.2H15.9ZM17.1389 16.1167H18.6056C19.0759 16.1167 19.4185 16.0333 19.6333 15.8667C19.8519 15.7 19.9611 15.4426 19.9611 15.0944C19.9611 14.7352 19.8481 14.4741 19.6222 14.3111C19.4 14.1444 19.0241 14.0611 18.4944 14.0611H17.1389V16.1167ZM17.1389 12.9444H18.4611C18.8759 12.9444 19.1741 12.8741 19.3556 12.7333C19.5407 12.5889 19.6333 12.3593 19.6333 12.0444C19.6333 11.7296 19.5389 11.5074 19.35 11.3778C19.1648 11.2482 18.8556 11.1833 18.4222 11.1833H17.1389V12.9444Z" fill="currentcolor"/>
<path d="M22.7111 17.2V10.1H23.95V17.2H22.7111Z" fill="currentcolor"/>
<path d="M25.7667 17.2V10.1H27.0056V16.0833H30.1667V17.2H25.7667Z" fill="currentcolor"/>
<path d="M31.3111 17.2V10.1H32.55V17.2H31.3111Z" fill="currentcolor"/>
<path d="M33.6278 11.2167V10.1H39.1667V11.2167H37.0167V17.2H35.7778V11.2167H33.6278Z" fill="currentcolor"/>
<path d="M39.8778 10.1H41.2222L42.9167 13.4667L44.6 10.1H45.9L43.5 14.7056V17.2H42.2611V14.6944L39.8778 10.1Z" fill="currentcolor"/>
<path d="M49.6 14.8222V12.4778C49.6 11.6778 49.8333 11.0704 50.3 10.6556C50.7704 10.2407 51.4593 10.0333 52.3667 10.0333C53.2333 10.0333 53.8981 10.2426 54.3611 10.6611C54.8278 11.0796 55.0611 11.6889 55.0611 12.4889V12.7278H53.8222V12.5111C53.8222 12.0926 53.7111 11.7704 53.4889 11.5444C53.2667 11.3185 52.8963 11.2056 52.3778 11.2056C52.0704 11.2056 51.8111 11.2407 51.6 11.3111C51.3889 11.3778 51.2296 11.4759 51.1222 11.6056C51.0185 11.7352 50.9444 11.8741 50.9 12.0222C50.8593 12.1667 50.8389 12.337 50.8389 12.5333V14.7556C50.8389 15.1889 50.9537 15.5204 51.1833 15.75C51.413 15.9796 51.8111 16.0944 52.3778 16.0944C52.9 16.0944 53.2704 15.987 53.4889 15.7722C53.7111 15.5537 53.8222 15.2259 53.8222 14.7889V14.5722H55.0611V14.7778C55.0611 15.5704 54.8278 16.1833 54.3611 16.6167C53.8944 17.05 53.2296 17.2667 52.3667 17.2667C51.4593 17.2667 50.7704 17.0593 50.3 16.6444C49.8333 16.2296 49.6 15.6222 49.6 14.8222Z" fill="currentcolor"/>
<path d="M56.3667 14.9111V12.3889C56.3667 11.6259 56.6185 11.0426 57.1222 10.6389C57.6259 10.2352 58.3111 10.0333 59.1778 10.0333C60.0556 10.0333 60.7444 10.237 61.2444 10.6444C61.7481 11.0519 62 11.6333 62 12.3889V14.9111C62 15.6667 61.7481 16.2482 61.2444 16.6556C60.7444 17.063 60.0556 17.2667 59.1778 17.2667C58.2963 17.2667 57.6074 17.0611 57.1111 16.65C56.6148 16.2352 56.3667 15.6556 56.3667 14.9111ZM57.6056 14.7444C57.6056 15.1852 57.7222 15.5204 57.9556 15.75C58.1889 15.9796 58.5963 16.0944 59.1778 16.0944C59.7667 16.0944 60.1778 15.9778 60.4111 15.7444C60.6444 15.5111 60.7611 15.1778 60.7611 14.7444V12.5556C60.7611 12.1148 60.6426 11.7796 60.4056 11.55C60.1722 11.3204 59.763 11.2056 59.1778 11.2056C58.863 11.2056 58.5981 11.2407 58.3833 11.3111C58.1685 11.3815 58.0056 11.4833 57.8944 11.6167C57.787 11.7463 57.7111 11.8852 57.6667 12.0333C57.6259 12.1815 57.6056 12.3556 57.6056 12.5556V14.7444Z" fill="currentcolor"/>
<path d="M0 7.9V0.800004H4.55889V1.91667H1.23528V3.77223H4.3207V4.88334H1.23528V6.78334H4.55889V7.9H0Z" fill="currentcolor"/>
<path d="M6.32018 7.9V0.800004H7.55546V6.78334H10.7073V7.9H6.32018Z" fill="currentcolor"/>
<path d="M12.0753 7.9V0.800004H16.6342V1.91667H13.3106V3.77223H16.396V4.88334H13.3106V6.78334H16.6342V7.9H12.0753Z" fill="currentcolor"/>
<path d="M18.1795 5.52223V3.17778C18.1795 2.37778 18.4121 1.77037 18.8775 1.35556C19.3465 0.940745 20.0333 0.733337 20.9381 0.733337C21.8022 0.733337 22.4651 0.942597 22.9267 1.36112C23.392 1.77963 23.6247 2.38889 23.6247 3.18889V3.42778H22.3894V3.21112C22.3894 2.7926 22.2786 2.47037 22.057 2.24445C21.8355 2.01852 21.4662 1.90556 20.9492 1.90556C20.6427 1.90556 20.3842 1.94074 20.1737 2.01112C19.9632 2.07778 19.8044 2.17593 19.6973 2.30556C19.5939 2.43519 19.52 2.57408 19.4757 2.72223C19.4351 2.86667 19.4148 3.03704 19.4148 3.23334V5.45556C19.4148 5.88889 19.5293 6.22037 19.7582 6.45C19.9872 6.67963 20.3842 6.79445 20.9492 6.79445C21.4699 6.79445 21.8392 6.68704 22.057 6.47223C22.2786 6.25371 22.3894 5.92593 22.3894 5.48889V5.27223H23.6247V5.47778C23.6247 6.27037 23.392 6.88334 22.9267 7.31667C22.4614 7.75 21.7985 7.96667 20.9381 7.96667C20.0333 7.96667 19.3465 7.75926 18.8775 7.34445C18.4121 6.92963 18.1795 6.32223 18.1795 5.52223Z" fill="currentcolor"/>
<path d="M24.4775 1.91667V0.800004H30.0003V1.91667H27.8565V7.9H26.6212V1.91667H24.4775Z" fill="currentcolor"/>
<path d="M31.2907 7.9V0.800004H33.5231C34.5682 0.800004 35.3326 0.981486 35.8164 1.34445C36.3001 1.70741 36.542 2.27408 36.542 3.04445C36.542 4.23334 36.0047 4.97223 34.9301 5.26112L36.542 7.9H35.1129L33.6615 5.42223H32.526V7.9H31.2907ZM32.526 4.30556H33.5951C34.2192 4.30556 34.6605 4.20741 34.919 4.01112C35.1775 3.81482 35.3067 3.5 35.3067 3.06667C35.3067 2.66297 35.1664 2.37037 34.8857 2.18889C34.6088 2.00741 34.1545 1.91667 33.5231 1.91667H32.526V4.30556Z" fill="currentcolor"/>
<path d="M38.0485 5.61112V3.08889C38.0485 2.32593 38.2996 1.7426 38.8018 1.33889C39.3041 0.935189 39.9873 0.733337 40.8514 0.733337C41.7266 0.733337 42.4135 0.937041 42.9121 1.34445C43.4143 1.75186 43.6654 2.33334 43.6654 3.08889V5.61112C43.6654 6.36667 43.4143 6.94815 42.9121 7.35556C42.4135 7.76297 41.7266 7.96667 40.8514 7.96667C39.9725 7.96667 39.2856 7.76112 38.7908 7.35C38.2959 6.93519 38.0485 6.35556 38.0485 5.61112ZM39.2838 5.44445C39.2838 5.88519 39.4001 6.22037 39.6328 6.45C39.8654 6.67963 40.2716 6.79445 40.8514 6.79445C41.4386 6.79445 41.8485 6.67778 42.0812 6.44445C42.3138 6.21112 42.4301 5.87778 42.4301 5.44445V3.25556C42.4301 2.81482 42.312 2.47963 42.0756 2.25C41.843 2.02037 41.4349 1.90556 40.8514 1.90556C40.5375 1.90556 40.2735 1.94074 40.0593 2.01112C39.8451 2.08149 39.6826 2.18334 39.5718 2.31667C39.4647 2.4463 39.389 2.58519 39.3447 2.73334C39.3041 2.88149 39.2838 3.05556 39.2838 3.25556V5.44445Z" fill="currentcolor"/>
<path d="M45.5375 7.9V0.800004H46.5789L50.2792 5.85V0.800004H51.4147V7.9H50.3678L46.673 2.88334V7.9H45.5375Z" fill="currentcolor"/>
<path d="M53.453 7.9V0.800004H54.6883V7.9H53.453Z" fill="currentcolor"/>
<path d="M56.5548 5.52223V3.17778C56.5548 2.37778 56.7875 1.77037 57.2528 1.35556C57.7218 0.940745 58.4087 0.733337 59.3134 0.733337C60.1776 0.733337 60.8404 0.942597 61.302 1.36112C61.7673 1.77963 62 2.38889 62 3.18889V3.42778H60.7647V3.21112C60.7647 2.7926 60.6539 2.47037 60.4324 2.24445C60.2108 2.01852 59.8415 1.90556 59.3245 1.90556C59.018 1.90556 58.7595 1.94074 58.549 2.01112C58.3385 2.07778 58.1797 2.17593 58.0726 2.30556C57.9692 2.43519 57.8953 2.57408 57.851 2.72223C57.8104 2.86667 57.7901 3.03704 57.7901 3.23334V5.45556C57.7901 5.88889 57.9046 6.22037 58.1335 6.45C58.3625 6.67963 58.7595 6.79445 59.3245 6.79445C59.8452 6.79445 60.2145 6.68704 60.4324 6.47223C60.6539 6.25371 60.7647 5.92593 60.7647 5.48889V5.27223H62V5.47778C62 6.27037 61.7673 6.88334 61.302 7.31667C60.8367 7.75 60.1739 7.96667 59.3134 7.96667C58.4087 7.96667 57.7218 7.75926 57.2528 7.34445C56.7875 6.92963 56.5548 6.32223 56.5548 5.52223Z" fill="currentcolor"/>
</svg>
