<svg width="100" height="100" viewBox="0 0 100 100" fill="none" xmlns="http://www.w3.org/2000/svg">
<rect width="100" height="100" rx="10" fill="#1E1E1E"/>
<path d="M22.5 40C22.5 41.3807 21.3807 42.5 20 42.5C18.6193 42.5 17.5 41.3807 17.5 40C17.5 38.6193 18.6193 37.5 20 37.5C21.3807 37.5 22.5 38.6193 22.5 40Z" fill="#FF3333"/>
<path d="M32.5 40C32.5 41.3807 31.3807 42.5 30 42.5C28.6193 42.5 27.5 41.3807 27.5 40C27.5 38.6193 28.6193 37.5 30 37.5C31.3807 37.5 32.5 38.6193 32.5 40Z" fill="#FF3333"/>
<path d="M42.5 40C42.5 41.3807 41.3807 42.5 40 42.5C38.6193 42.5 37.5 41.3807 37.5 40C37.5 38.6193 38.6193 37.5 40 37.5C41.3807 37.5 42.5 38.6193 42.5 40Z" fill="white"/>
<path d="M52.5 40C52.5 41.3807 51.3807 42.5 50 42.5C48.6193 42.5 47.5 41.3807 47.5 40C47.5 38.6193 48.6193 37.5 50 37.5C51.3807 37.5 52.5 38.6193 52.5 40Z" fill="white"/>
<path d="M62.5 40C62.5 41.3807 61.3807 42.5 60 42.5C58.6193 42.5 57.5 41.3807 57.5 40C57.5 38.6193 58.6193 37.5 60 37.5C61.3807 37.5 62.5 38.6193 62.5 40Z" fill="white"/>
<path d="M72.5 40C72.5 41.3807 71.3807 42.5 70 42.5C68.6193 42.5 67.5 41.3807 67.5 40C67.5 38.6193 68.6193 37.5 70 37.5C71.3807 37.5 72.5 38.6193 72.5 40Z" fill="white"/>
<path d="M82.5 40C82.5 41.3807 81.3807 42.5 80 42.5C78.6193 42.5 77.5 41.3807 77.5 40C77.5 38.6193 78.6193 37.5 80 37.5C81.3807 37.5 82.5 38.6193 82.5 40Z" fill="white"/>
<path d="M22.5 50C22.5 51.3807 21.3807 52.5 20 52.5C18.6193 52.5 17.5 51.3807 17.5 50C17.5 48.6193 18.6193 47.5 20 47.5C21.3807 47.5 22.5 48.6193 22.5 50Z" fill="#FF3333"/>
<path d="M32.5 50C32.5 51.3807 31.3807 52.5 30 52.5C28.6193 52.5 27.5 51.3807 27.5 50C27.5 48.6193 28.6193 47.5 30 47.5C31.3807 47.5 32.5 48.6193 32.5 50Z" fill="white"/>
<path d="M42.5 50C42.5 51.3807 41.3807 52.5 40 52.5C38.6193 52.5 37.5 51.3807 37.5 50C37.5 48.6193 38.6193 47.5 40 47.5C41.3807 47.5 42.5 48.6193 42.5 50Z" fill="white"/>
<path d="M52.5 50C52.5 51.3807 51.3807 52.5 50 52.5C48.6193 52.5 47.5 51.3807 47.5 50C47.5 48.6193 48.6193 47.5 50 47.5C51.3807 47.5 52.5 48.6193 52.5 50Z" fill="white"/>
<path d="M62.5 50C62.5 51.3807 61.3807 52.5 60 52.5C58.6193 52.5 57.5 51.3807 57.5 50C57.5 48.6193 58.6193 47.5 60 47.5C61.3807 47.5 62.5 48.6193 62.5 50Z" fill="white"/>
<path d="M72.5 50C72.5 51.3807 71.3807 52.5 70 52.5C68.6193 52.5 67.5 51.3807 67.5 50C67.5 48.6193 68.6193 47.5 70 47.5C71.3807 47.5 72.5 48.6193 72.5 50Z" fill="white"/>
<path d="M82.5 50C82.5 51.3807 81.3807 52.5 80 52.5C78.6193 52.5 77.5 51.3807 77.5 50C77.5 48.6193 78.6193 47.5 80 47.5C81.3807 47.5 82.5 48.6193 82.5 50Z" fill="#FF3333"/>
<path d="M22.5 60C22.5 61.3807 21.3807 62.5 20 62.5C18.6193 62.5 17.5 61.3807 17.5 60C17.5 58.6193 18.6193 57.5 20 57.5C21.3807 57.5 22.5 58.6193 22.5 60Z" fill="white"/>
<path d="M32.5 60C32.5 61.3807 31.3807 62.5 30 62.5C28.6193 62.5 27.5 61.3807 27.5 60C27.5 58.6193 28.6193 57.5 30 57.5C31.3807 57.5 32.5 58.6193 32.5 60Z" fill="white"/>
<path d="M42.5 60C42.5 61.3807 41.3807 62.5 40 62.5C38.6193 62.5 37.5 61.3807 37.5 60C37.5 58.6193 38.6193 57.5 40 57.5C41.3807 57.5 42.5 58.6193 42.5 60Z" fill="white"/>
<path d="M52.5 60C52.5 61.3807 51.3807 62.5 50 62.5C48.6193 62.5 47.5 61.3807 47.5 60C47.5 58.6193 48.6193 57.5 50 57.5C51.3807 57.5 52.5 58.6193 52.5 60Z" fill="white"/>
<path d="M62.5 60C62.5 61.3807 61.3807 62.5 60 62.5C58.6193 62.5 57.5 61.3807 57.5 60C57.5 58.6193 58.6193 57.5 60 57.5C61.3807 57.5 62.5 58.6193 62.5 60Z" fill="white"/>
<path d="M72.5 60C72.5 61.3807 71.3807 62.5 70 62.5C68.6193 62.5 67.5 61.3807 67.5 60C67.5 58.6193 68.6193 57.5 70 57.5C71.3807 57.5 72.5 58.6193 72.5 60Z" fill="#FF3333"/>
<path d="M82.5 60C82.5 61.3807 81.3807 62.5 80 62.5C78.6193 62.5 77.5 61.3807 77.5 60C77.5 58.6193 78.6193 57.5 80 57.5C81.3807 57.5 82.5 58.6193 82.5 60Z" fill="#FF3333"/>
</svg>
